<svg width="379" height="128" viewBox="0 0 379 128" fill="none" xmlns="http://www.w3.org/2000/svg">
<g clip-path="url(#clip0_196_22418)">
<g clip-path="url(#clip1_196_22418)">
<rect x="257.5" y="1" width="144" height="37" rx="4" fill="url(#paint0_linear_196_22418)" fill-opacity="0.1"/>
<path fill-rule="evenodd" clip-rule="evenodd" d="M297.5 11C296.395 11 295.5 11.8954 295.5 13V14C295.5 15.1046 296.395 16 297.5 16H389.5C390.605 16 391.5 15.1046 391.5 14V13C391.5 11.8954 390.605 11 389.5 11H297.5ZM297.5 22C296.395 22 295.5 22.8954 295.5 24V25C295.5 26.1046 296.395 27 297.5 27H355.5C356.605 27 357.5 26.1046 357.5 25V24C357.5 22.8954 356.605 22 355.5 22H297.5Z" fill="url(#paint1_linear_196_22418)" fill-opacity="0.5"/>
<path fill-rule="evenodd" clip-rule="evenodd" d="M268.208 12.334C268.153 12.334 268.1 12.3559 268.061 12.395C268.022 12.4341 268 12.4871 268 12.5423V22.959C268 23.074 268.093 23.1673 268.208 23.1673H270.292C270.458 23.1673 270.616 23.2332 270.734 23.3504C270.851 23.4676 270.917 23.6266 270.917 23.7923V26.4507L274.017 23.3507C274.134 23.2334 274.293 23.1675 274.459 23.1673H282.792C282.847 23.1673 282.9 23.1454 282.939 23.1063C282.978 23.0672 283 23.0142 283 22.959V12.5423C283 12.4871 282.978 12.4341 282.939 12.395C282.9 12.3559 282.847 12.334 282.792 12.334H268.208ZM266.75 12.5423C266.75 11.7373 267.403 11.084 268.208 11.084H282.792C283.597 11.084 284.25 11.7373 284.25 12.5423V22.959C284.25 23.3458 284.097 23.7167 283.823 23.9902C283.55 24.2637 283.179 24.4173 282.792 24.4173H274.717L271.739 27.3948C271.569 27.5645 271.353 27.6801 271.118 27.7269C270.882 27.7737 270.638 27.7497 270.416 27.6578C270.195 27.566 270.005 27.4104 269.871 27.2108C269.738 27.0112 269.667 26.7766 269.667 26.5365V24.4173H268.208C267.822 24.4173 267.451 24.2637 267.177 23.9902C266.904 23.7167 266.75 23.3458 266.75 22.959V12.5423Z" fill="#40BBFF" fill-opacity="0.5"/>
</g>
<g clip-path="url(#clip2_196_22418)">
<rect x="105.5" y="1" width="144" height="37" rx="4" fill="#40BBFF" fill-opacity="0.1"/>
<rect x="143.5" y="11" width="96" height="5" rx="2" fill="#40BBFF" fill-opacity="0.5"/>
<rect x="143.5" y="22" width="62" height="5" rx="2" fill="#40BBFF" fill-opacity="0.5"/>
<path fill-rule="evenodd" clip-rule="evenodd" d="M116.208 12.334C116.153 12.334 116.1 12.3559 116.061 12.395C116.022 12.4341 116 12.4871 116 12.5423V22.959C116 23.074 116.093 23.1673 116.208 23.1673H118.292C118.458 23.1673 118.616 23.2332 118.734 23.3504C118.851 23.4676 118.917 23.6266 118.917 23.7923V26.4507L122.017 23.3507C122.134 23.2334 122.293 23.1675 122.459 23.1673H130.792C130.847 23.1673 130.9 23.1454 130.939 23.1063C130.978 23.0672 131 23.0142 131 22.959V12.5423C131 12.4871 130.978 12.4341 130.939 12.395C130.9 12.3559 130.847 12.334 130.792 12.334H116.208ZM114.75 12.5423C114.75 11.7373 115.403 11.084 116.208 11.084H130.792C131.597 11.084 132.25 11.7373 132.25 12.5423V22.959C132.25 23.3458 132.097 23.7167 131.823 23.9902C131.55 24.2637 131.179 24.4173 130.792 24.4173H122.717L119.739 27.3948C119.569 27.5645 119.353 27.6801 119.118 27.7269C118.882 27.7737 118.638 27.7497 118.416 27.6578C118.195 27.566 118.005 27.4104 117.871 27.2108C117.738 27.0112 117.667 26.7766 117.667 26.5365V24.4173H116.208C115.822 24.4173 115.451 24.2637 115.177 23.9902C114.904 23.7167 114.75 23.3458 114.75 22.959V12.5423Z" fill="#40BBFF"/>
</g>
<g clip-path="url(#clip3_196_22418)">
<rect x="280.5" y="46" width="144" height="37" rx="4" fill="url(#paint2_linear_196_22418)" fill-opacity="0.1"/>
<path fill-rule="evenodd" clip-rule="evenodd" d="M320.5 56C319.395 56 318.5 56.8954 318.5 58V59C318.5 60.1046 319.395 61 320.5 61H412.5C413.605 61 414.5 60.1046 414.5 59V58C414.5 56.8954 413.605 56 412.5 56H320.5ZM320.5 67C319.395 67 318.5 67.8954 318.5 69V70C318.5 71.1046 319.395 72 320.5 72H378.5C379.605 72 380.5 71.1046 380.5 70V69C380.5 67.8954 379.605 67 378.5 67H320.5Z" fill="url(#paint3_linear_196_22418)" fill-opacity="0.5"/>
<path fill-rule="evenodd" clip-rule="evenodd" d="M291.208 57.334C291.153 57.334 291.1 57.3559 291.061 57.395C291.022 57.4341 291 57.4871 291 57.5423V67.959C291 68.074 291.093 68.1673 291.208 68.1673H293.292C293.458 68.1673 293.616 68.2332 293.734 68.3504C293.851 68.4676 293.917 68.6266 293.917 68.7923V71.4507L297.017 68.3507C297.134 68.2334 297.293 68.1675 297.459 68.1673H305.792C305.847 68.1673 305.9 68.1454 305.939 68.1063C305.978 68.0672 306 68.0142 306 67.959V57.5423C306 57.4871 305.978 57.4341 305.939 57.395C305.9 57.3559 305.847 57.334 305.792 57.334H291.208ZM289.75 57.5423C289.75 56.7373 290.403 56.084 291.208 56.084H305.792C306.597 56.084 307.25 56.7373 307.25 57.5423V67.959C307.25 68.3458 307.097 68.7167 306.823 68.9902C306.55 69.2637 306.179 69.4173 305.792 69.4173H297.717L294.739 72.3948C294.569 72.5645 294.353 72.6801 294.118 72.7269C293.882 72.7737 293.638 72.7497 293.416 72.6578C293.195 72.566 293.005 72.4104 292.871 72.2108C292.738 72.0112 292.667 71.7766 292.667 71.5365V69.4173H291.208C290.822 69.4173 290.451 69.2637 290.177 68.9902C289.904 68.7167 289.75 68.3458 289.75 67.959V57.5423Z" fill="#40BBFF" fill-opacity="0.5"/>
</g>
<g clip-path="url(#clip4_196_22418)">
<rect x="130.5" y="46" width="144" height="37" rx="4" fill="#40BBFF" fill-opacity="0.1"/>
<path fill-rule="evenodd" clip-rule="evenodd" d="M141.208 57.334C141.153 57.334 141.1 57.3559 141.061 57.395C141.022 57.4341 141 57.4871 141 57.5423V67.959C141 68.074 141.093 68.1673 141.208 68.1673H143.292C143.458 68.1673 143.616 68.2332 143.734 68.3504C143.851 68.4676 143.917 68.6266 143.917 68.7923V71.4507L147.017 68.3507C147.134 68.2334 147.293 68.1675 147.459 68.1673H155.792C155.847 68.1673 155.9 68.1454 155.939 68.1063C155.978 68.0672 156 68.0142 156 67.959V57.5423C156 57.4871 155.978 57.4341 155.939 57.395C155.9 57.3559 155.847 57.334 155.792 57.334H141.208ZM139.75 57.5423C139.75 56.7373 140.403 56.084 141.208 56.084H155.792C156.597 56.084 157.25 56.7373 157.25 57.5423V67.959C157.25 68.3458 157.097 68.7167 156.823 68.9902C156.55 69.2637 156.179 69.4173 155.792 69.4173H147.717L144.739 72.3948C144.569 72.5645 144.353 72.6801 144.118 72.7269C143.882 72.7737 143.638 72.7497 143.416 72.6578C143.195 72.566 143.005 72.4104 142.871 72.2108C142.738 72.0112 142.667 71.7766 142.667 71.5365V69.4173H141.208C140.822 69.4173 140.451 69.2637 140.177 68.9902C139.904 68.7167 139.75 68.3458 139.75 67.959V57.5423Z" fill="#40BBFF"/>
<rect x="168.5" y="56" width="96" height="5" rx="2" fill="#40BBFF" fill-opacity="0.5"/>
<rect x="168.5" y="67" width="62" height="5" rx="2" fill="#40BBFF" fill-opacity="0.5"/>
</g>
<g clip-path="url(#clip5_196_22418)">
<rect x="259.5" y="91" width="144" height="37" rx="4" fill="url(#paint4_linear_196_22418)" fill-opacity="0.1"/>
<path fill-rule="evenodd" clip-rule="evenodd" d="M299.5 101C298.395 101 297.5 101.895 297.5 103V104C297.5 105.105 298.395 106 299.5 106H391.5C392.605 106 393.5 105.105 393.5 104V103C393.5 101.895 392.605 101 391.5 101H299.5ZM299.5 112C298.395 112 297.5 112.895 297.5 114V115C297.5 116.105 298.395 117 299.5 117H357.5C358.605 117 359.5 116.105 359.5 115V114C359.5 112.895 358.605 112 357.5 112H299.5Z" fill="url(#paint5_linear_196_22418)" fill-opacity="0.5"/>
<path fill-rule="evenodd" clip-rule="evenodd" d="M270.208 102.334C270.153 102.334 270.1 102.356 270.061 102.395C270.022 102.434 270 102.487 270 102.542V112.959C270 113.074 270.093 113.167 270.208 113.167H272.292C272.458 113.167 272.616 113.233 272.734 113.35C272.851 113.468 272.917 113.627 272.917 113.792V116.451L276.017 113.351C276.134 113.233 276.293 113.167 276.459 113.167H284.792C284.847 113.167 284.9 113.145 284.939 113.106C284.978 113.067 285 113.014 285 112.959V102.542C285 102.487 284.978 102.434 284.939 102.395C284.9 102.356 284.847 102.334 284.792 102.334H270.208ZM268.75 102.542C268.75 101.737 269.403 101.084 270.208 101.084H284.792C285.597 101.084 286.25 101.737 286.25 102.542V112.959C286.25 113.346 286.097 113.717 285.823 113.99C285.55 114.264 285.179 114.417 284.792 114.417H276.717L273.739 117.395C273.569 117.565 273.353 117.68 273.118 117.727C272.882 117.774 272.638 117.75 272.416 117.658C272.195 117.566 272.005 117.41 271.871 117.211C271.738 117.011 271.667 116.777 271.667 116.536V114.417H270.208C269.822 114.417 269.451 114.264 269.177 113.99C268.904 113.717 268.75 113.346 268.75 112.959V102.542Z" fill="#40BBFF" fill-opacity="0.5"/>
</g>
<g clip-path="url(#clip6_196_22418)">
<rect x="109.5" y="91" width="144" height="37" rx="4" fill="url(#paint6_linear_196_22418)" fill-opacity="0.1"/>
<path fill-rule="evenodd" clip-rule="evenodd" d="M120.208 102.334C120.153 102.334 120.1 102.356 120.061 102.395C120.022 102.434 120 102.487 120 102.542V112.959C120 113.074 120.093 113.167 120.208 113.167H122.292C122.458 113.167 122.616 113.233 122.734 113.35C122.851 113.468 122.917 113.627 122.917 113.792V116.451L126.017 113.351C126.134 113.233 126.293 113.167 126.459 113.167H134.792C134.847 113.167 134.9 113.145 134.939 113.106C134.978 113.067 135 113.014 135 112.959V102.542C135 102.487 134.978 102.434 134.939 102.395C134.9 102.356 134.847 102.334 134.792 102.334H120.208ZM118.75 102.542C118.75 101.737 119.403 101.084 120.208 101.084H134.792C135.597 101.084 136.25 101.737 136.25 102.542V112.959C136.25 113.346 136.097 113.717 135.823 113.99C135.55 114.264 135.179 114.417 134.792 114.417H126.717L123.739 117.395C123.569 117.565 123.353 117.68 123.118 117.727C122.882 117.774 122.638 117.75 122.416 117.658C122.195 117.566 122.005 117.41 121.871 117.211C121.738 117.011 121.667 116.777 121.667 116.536V114.417H120.208C119.822 114.417 119.451 114.264 119.177 113.99C118.904 113.717 118.75 113.346 118.75 112.959V102.542Z" fill="#40BBFF"/>
<path fill-rule="evenodd" clip-rule="evenodd" d="M149.5 101C148.395 101 147.5 101.895 147.5 103V104C147.5 105.105 148.395 106 149.5 106H241.5C242.605 106 243.5 105.105 243.5 104V103C243.5 101.895 242.605 101 241.5 101H149.5ZM149.5 112C148.395 112 147.5 112.895 147.5 114V115C147.5 116.105 148.395 117 149.5 117H207.5C208.605 117 209.5 116.105 209.5 115V114C209.5 112.895 208.605 112 207.5 112H149.5Z" fill="url(#paint7_linear_196_22418)" fill-opacity="0.5"/>
</g>
<g clip-path="url(#clip7_196_22418)">
<rect x="-46.5" y="1" width="144" height="37" rx="4" fill="url(#paint8_linear_196_22418)" fill-opacity="0.1"/>
<path fill-rule="evenodd" clip-rule="evenodd" d="M-6.5 11C-7.60457 11 -8.5 11.8954 -8.5 13V14C-8.5 15.1046 -7.60457 16 -6.5 16H85.5C86.6046 16 87.5 15.1046 87.5 14V13C87.5 11.8954 86.6046 11 85.5 11H-6.5ZM-6.5 22C-7.60457 22 -8.5 22.8954 -8.5 24V25C-8.5 26.1046 -7.60457 27 -6.5 27H51.5C52.6046 27 53.5 26.1046 53.5 25V24C53.5 22.8954 52.6046 22 51.5 22H-6.5Z" fill="url(#paint9_linear_196_22418)" fill-opacity="0.5"/>
</g>
<g clip-path="url(#clip8_196_22418)">
<rect x="-21.5" y="46" width="144" height="37" rx="4" fill="url(#paint10_linear_196_22418)" fill-opacity="0.1"/>
<path fill-rule="evenodd" clip-rule="evenodd" d="M18.5 56C17.3954 56 16.5 56.8954 16.5 58V59C16.5 60.1046 17.3954 61 18.5 61H110.5C111.605 61 112.5 60.1046 112.5 59V58C112.5 56.8954 111.605 56 110.5 56H18.5ZM18.5 67C17.3954 67 16.5 67.8954 16.5 69V70C16.5 71.1046 17.3954 72 18.5 72H76.5C77.6046 72 78.5 71.1046 78.5 70V69C78.5 67.8954 77.6046 67 76.5 67H18.5Z" fill="url(#paint11_linear_196_22418)" fill-opacity="0.5"/>
</g>
<g clip-path="url(#clip9_196_22418)">
<rect x="-42.5" y="91" width="144" height="37" rx="4" fill="url(#paint12_linear_196_22418)" fill-opacity="0.1"/>
<path fill-rule="evenodd" clip-rule="evenodd" d="M-2.5 101C-3.60457 101 -4.5 101.895 -4.5 103V104C-4.5 105.105 -3.60457 106 -2.5 106H89.5C90.6046 106 91.5 105.105 91.5 104V103C91.5 101.895 90.6046 101 89.5 101H-2.5ZM-2.5 112C-3.60457 112 -4.5 112.895 -4.5 114V115C-4.5 116.105 -3.60457 117 -2.5 117H55.5C56.6046 117 57.5 116.105 57.5 115V114C57.5 112.895 56.6046 112 55.5 112H-2.5Z" fill="url(#paint13_linear_196_22418)" fill-opacity="0.5"/>
</g>
</g>
<defs>
<linearGradient id="paint0_linear_196_22418" x1="257.5" y1="15.5" x2="375.5" y2="17" gradientUnits="userSpaceOnUse">
<stop offset="0.234198" stop-color="#40BBFF"/>
<stop offset="1" stop-color="#40BBFF" stop-opacity="0"/>
</linearGradient>
<linearGradient id="paint1_linear_196_22418" x1="295" y1="21" x2="372.5" y2="35.5" gradientUnits="userSpaceOnUse">
<stop stop-color="#40BBFF"/>
<stop offset="0.879097" stop-color="#40BBFF" stop-opacity="0"/>
<stop offset="1" stop-color="#40BBFF" stop-opacity="0"/>
</linearGradient>
<linearGradient id="paint2_linear_196_22418" x1="284" y1="66.5" x2="346.5" y2="65" gradientUnits="userSpaceOnUse">
<stop stop-color="#40BBFF"/>
<stop offset="1" stop-color="#40BBFF" stop-opacity="0"/>
</linearGradient>
<linearGradient id="paint3_linear_196_22418" x1="318" y1="66" x2="374.5" y2="72" gradientUnits="userSpaceOnUse">
<stop stop-color="#40BBFF"/>
<stop offset="1" stop-color="#40BBFF" stop-opacity="0"/>
</linearGradient>
<linearGradient id="paint4_linear_196_22418" x1="318.5" y1="88" x2="322" y2="122" gradientUnits="userSpaceOnUse">
<stop stop-color="#40BBFF"/>
<stop offset="1" stop-color="#40BBFF" stop-opacity="0"/>
</linearGradient>
<linearGradient id="paint5_linear_196_22418" x1="297" y1="111" x2="374.5" y2="125.5" gradientUnits="userSpaceOnUse">
<stop stop-color="#40BBFF"/>
<stop offset="0.879097" stop-color="#40BBFF" stop-opacity="0"/>
<stop offset="1" stop-color="#40BBFF" stop-opacity="0"/>
</linearGradient>
<linearGradient id="paint6_linear_196_22418" x1="181.5" y1="91" x2="181.5" y2="128" gradientUnits="userSpaceOnUse">
<stop stop-color="#40BBFF"/>
<stop offset="1" stop-color="#40BBFF" stop-opacity="0"/>
</linearGradient>
<linearGradient id="paint7_linear_196_22418" x1="195.5" y1="101" x2="195.5" y2="117" gradientUnits="userSpaceOnUse">
<stop stop-color="#40BBFF"/>
<stop offset="1" stop-color="#40BBFF" stop-opacity="0"/>
</linearGradient>
<linearGradient id="paint8_linear_196_22418" x1="100" y1="24.5" x2="82.5" y2="24.5" gradientUnits="userSpaceOnUse">
<stop stop-color="#40BBFF"/>
<stop offset="1" stop-color="#40BBFF" stop-opacity="0"/>
</linearGradient>
<linearGradient id="paint9_linear_196_22418" x1="92" y1="20.5998" x2="15.961" y2="40.2232" gradientUnits="userSpaceOnUse">
<stop stop-color="#40BBFF"/>
<stop offset="1" stop-color="#40BBFF" stop-opacity="0"/>
</linearGradient>
<linearGradient id="paint10_linear_196_22418" x1="125" y1="69.5" x2="93" y2="69.5" gradientUnits="userSpaceOnUse">
<stop stop-color="#40BBFF"/>
<stop offset="1" stop-color="#40BBFF" stop-opacity="0"/>
</linearGradient>
<linearGradient id="paint11_linear_196_22418" x1="117" y1="65.5998" x2="40.961" y2="85.2232" gradientUnits="userSpaceOnUse">
<stop stop-color="#40BBFF"/>
<stop offset="1" stop-color="#40BBFF" stop-opacity="0"/>
</linearGradient>
<linearGradient id="paint12_linear_196_22418" x1="104" y1="114.5" x2="72" y2="114.5" gradientUnits="userSpaceOnUse">
<stop stop-color="#40BBFF"/>
<stop offset="1" stop-color="#40BBFF" stop-opacity="0"/>
</linearGradient>
<linearGradient id="paint13_linear_196_22418" x1="96" y1="110.6" x2="19.961" y2="130.223" gradientUnits="userSpaceOnUse">
<stop stop-color="#40BBFF"/>
<stop offset="1" stop-color="#40BBFF" stop-opacity="0"/>
</linearGradient>
<clipPath id="clip0_196_22418">
<rect width="378" height="128" fill="white" transform="translate(0.5)"/>
</clipPath>
<clipPath id="clip1_196_22418">
<rect width="144" height="37" fill="white" transform="translate(257.5 1)"/>
</clipPath>
<clipPath id="clip2_196_22418">
<rect width="144" height="37" fill="white" transform="translate(105.5 1)"/>
</clipPath>
<clipPath id="clip3_196_22418">
<rect width="144" height="37" fill="white" transform="translate(280.5 46)"/>
</clipPath>
<clipPath id="clip4_196_22418">
<rect width="144" height="37" fill="white" transform="translate(130.5 46)"/>
</clipPath>
<clipPath id="clip5_196_22418">
<rect width="144" height="37" fill="white" transform="translate(259.5 91)"/>
</clipPath>
<clipPath id="clip6_196_22418">
<rect width="144" height="37" fill="white" transform="translate(109.5 91)"/>
</clipPath>
<clipPath id="clip7_196_22418">
<rect width="144" height="37" fill="white" transform="translate(-46.5 1)"/>
</clipPath>
<clipPath id="clip8_196_22418">
<rect width="144" height="37" fill="white" transform="translate(-21.5 46)"/>
</clipPath>
<clipPath id="clip9_196_22418">
<rect width="144" height="37" fill="white" transform="translate(-42.5 91)"/>
</clipPath>
</defs>
</svg>
