<svg width="40" height="40" viewBox="0 0 40 40" fill="none" xmlns="http://www.w3.org/2000/svg">
  <path d="M33.3905 15.8906L20.8905 28.3906C20.6516 28.6216 20.3322 28.7508 19.9999 28.7508C19.6675 28.7508 19.3482 28.6216 19.1093 28.3906L6.60925 15.8906C6.43968 15.7099 6.32474 15.4848 6.27773 15.2415C6.23073 14.9982 6.25357 14.7465 6.34363 14.5156C6.43926 14.2881 6.60008 14.094 6.80585 13.9578C7.01161 13.8215 7.2531 13.7492 7.49988 13.75H32.4999C32.7467 13.7492 32.9881 13.8215 33.1939 13.9578C33.3997 14.094 33.5605 14.2881 33.6561 14.5156C33.7462 14.7465 33.769 14.9982 33.722 15.2415C33.675 15.4848 33.5601 15.7099 33.3905 15.8906Z" fill="#CBD5E1"/>
</svg>
