<svg width="379" height="128" viewBox="0 0 379 128" fill="none" xmlns="http://www.w3.org/2000/svg">
<g clip-path="url(#clip0_196_22383)">
<path fill-rule="evenodd" clip-rule="evenodd" d="M95.752 -7.37648H487.831V-9H95.752V-7.37648ZM487 24.9961H315V50.9961H313V24.9961H108.483C110.549 26.6452 111.872 29.1847 111.872 32.0332V48.9922C111.872 52.8582 115.006 55.9922 118.872 55.9922H125V55.9961H197.084C197.561 53.1603 200.028 51 203 51C206.044 51 208.558 53.2665 208.948 56.2039H209V55.9961H308V57V57.9961H225.795C227.958 59.6256 229.357 62.216 229.357 65.1332V80.8821C229.357 84.3483 231.771 87.2507 235.009 88H236V88.1582L236.058 88.1632C236.465 85.2456 238.97 83 242 83C244.973 83 247.441 85.1623 247.917 88H303V89V90H247.917C247.441 92.8377 244.973 95 242 95C238.954 95 236.439 92.7308 236.052 89.7908L236 89.7872V90H131.917C131.441 92.8377 128.973 95 126 95C122.686 95 120 92.3137 120 89C120 85.6863 122.686 83 126 83C128.973 83 131.441 85.1623 131.917 88H231.271C229.121 86.3694 227.734 83.7878 227.734 80.8821V65.1332C227.734 61.6366 225.277 58.7138 221.996 57.9961H209V57.8274H208.943C208.54 60.7496 206.033 63 203 63C200.026 63 197.557 60.8357 197.082 57.9961H127V83H126H125V57.9961H-108V55.9961H113.22C111.178 54.3462 109.872 51.8217 109.872 48.9922V32.0332C109.872 28.1672 106.738 25.0332 102.872 25.0332H95.9733C95.4916 27.8642 93.0268 30.0195 90.0586 30.0195C87.0774 30.0195 84.604 27.8453 84.1377 24.9961H-108V22.9961H84.1455C84.6312 20.1699 87.0938 18.0195 90.0586 18.0195C93.0234 18.0195 95.4859 20.1699 95.9716 22.9961H487V24.9961ZM342.019 122H342H336.972H85.917C85.441 124.838 82.973 127 80 127C77.027 127 74.559 124.838 74.083 122H73.8049H-108V120H68.1475C66.1085 118.35 64.8049 115.827 64.8049 113V97C64.8049 93.134 61.6709 90 57.8049 90H46V89.9961H-108V87.9961H120V89V89.9961H63.4574C65.4991 91.646 66.8049 94.1705 66.8049 97V113C66.8049 116.866 69.9389 120 73.8049 120H74.083C74.559 117.162 77.027 115 80 115C82.973 115 85.441 117.162 85.917 120H331.314C329.275 118.35 327.972 115.827 327.972 113V97C327.972 93.134 324.838 90 320.972 90H314.917C314.441 92.8377 311.973 95 309 95C305.686 95 303 92.3137 303 89C303 85.6863 305.686 83 309 83C311.973 83 314.441 85.1623 314.917 88H320.972H373V90H326.629C328.668 91.65 329.972 94.1727 329.972 97V113C329.972 116.866 333.106 120 336.972 120H341.914C342.256 117.011 344.794 114.689 347.875 114.689C351.189 114.689 353.875 117.376 353.875 120.689C353.875 120.934 353.86 121.176 353.832 121.413H487.831V123.036H353.399C352.485 125.184 350.356 126.689 347.875 126.689C345.011 126.689 342.616 124.683 342.019 122ZM308 57C308 53.6863 310.686 51 314 51C317.262 51 319.916 53.6031 319.998 56.8454V55.9961H486.998V57.9961H319.998V57.1546C319.916 60.3969 317.262 63 314 63C310.686 63 308 60.3137 308 57ZM242 85C244.209 85 246 86.7909 246 89C246 91.2091 244.209 93 242 93C239.791 93 238 91.2091 238 89C238 86.7909 239.791 85 242 85ZM126 85C128.209 85 130 86.7909 130 89C130 91.2091 128.209 93 126 93C123.791 93 122 91.2091 122 89C122 86.7909 123.791 85 126 85ZM76 121C76 118.791 77.7909 117 80 117C82.2091 117 84 118.791 84 121C84 123.209 82.2091 125 80 125C77.7909 125 76 123.209 76 121ZM199 57C199 54.7909 200.791 53 203 53C205.209 53 207 54.7909 207 57C207 59.2091 205.209 61 203 61C200.791 61 199 59.2091 199 57ZM90.0586 20.0195C87.8495 20.0195 86.0586 21.8104 86.0586 24.0195C86.0586 26.2287 87.8495 28.0195 90.0586 28.0195C92.2677 28.0195 94.0586 26.2287 94.0586 24.0195C94.0586 21.8104 92.2677 20.0195 90.0586 20.0195ZM310 57C310 54.7909 311.791 53 314 53C316.209 53 318 54.7909 318 57C318 59.2091 316.209 61 314 61C311.791 61 310 59.2091 310 57ZM309 85C306.791 85 305 86.7909 305 89C305 91.2091 306.791 93 309 93C311.209 93 313 91.2091 313 89C313 86.7909 311.209 85 309 85ZM343.875 120.689C343.875 118.48 345.666 116.689 347.875 116.689C350.084 116.689 351.875 118.48 351.875 120.689C351.875 122.899 350.084 124.689 347.875 124.689C345.666 124.689 343.875 122.899 343.875 120.689Z" fill="url(#paint0_radial_196_22383)"/>
</g>
<defs>
<radialGradient id="paint0_radial_196_22383" cx="0" cy="0" r="1" gradientUnits="userSpaceOnUse" gradientTransform="translate(7.67145 80.3619) rotate(-0.333757) scale(367.313 1609.24)">
<stop stop-color="#8B5CF6" stop-opacity="0"/>
<stop offset="0.447917" stop-color="#8B5CF6"/>
<stop offset="1" stop-color="#8B5CF6" stop-opacity="0"/>
</radialGradient>
<clipPath id="clip0_196_22383">
<rect width="379" height="128" fill="white"/>
</clipPath>
</defs>
</svg>
